
<svg xmlns="http://www.w3.org/2000/svg" version="1.0" width="300.000000pt" height="176.000000pt" viewBox="0 0 300.000000 176.000000" preserveAspectRatio="xMidYMid meet">

<g transform="translate(0.000000,176.000000) scale(0.100000,-0.100000)" fill="#000000" stroke="none">
<path d="M1870 1210 c-37 -23 -71 -37 -80 -34 -127 52 -156 58 -270 59 -104 0 -120 -3 -171 -26 -117 -55 -178 -134 -270 -351 -33 -79 -72 -168 -86 -198 -46 -101 -41 -145 19 -176 27 -14 55 -15 197 -10 91 4 213 7 271 8 192 2 282 54 330 191 41 115 22 249 -45 329 -29 35 -32 53 -7 43 55 -22 79 -18 143 25 103 68 132 118 93 158 -28 28 -56 24 -124 -18z m109 -4 c18 -21 5 -37 -75 -93 l-74 -52 -123 41 c-112 37 -128 40 -199 35 -176 -12 -288 -136 -276 -306 6 -82 33 -136 93 -189 117 -103 310 -100 380 6 52 79 55 212 5 281 -29 42 -112 74 -173 68 -76 -7 -147 -75 -147 -141 0 -93 110 -168 178 -120 25 18 30 67 10 121 -10 28 -10 36 2 43 33 20 80 -40 80 -102 0 -94 -114 -162 -206 -123 -56 23 -81 51 -105 114 -38 102 -3 188 95 236 49 24 65 27 135 24 69 -4 85 -8 122 -34 65 -46 99 -118 99 -211 0 -148 -57 -237 -176 -274 -59 -18 -93 -20 -333 -20 -304 0 -314 2 -294 61 24 72 175 405 203 450 47 72 118 133 186 159 81 30 216 24 319 -15 111 -42 108 -42 176 9 65 49 80 54 98 32z m-567 -146 c-12 -11 -24 -20 -27 -20 -11 0 -41 -34 -63 -71 -17 -27 -22 -52 -22 -101 0 -116 63 -203 165 -229 41 -10 55 -10 102 6 65 22 113 71 113 116 0 18 4 28 10 24 6 -3 10 1 10 10 0 9 -4 14 -8 11 -5 -3 -8 8 -7 24 4 60 -85 122 -121 85 -16 -16 -18 -115 -2 -115 4 0 3 -9 -4 -20 -30 -48 -128 5 -128 69 0 49 54 102 111 108 65 7 135 -24 154 -70 23 -55 21 -159 -4 -206 -30 -55 -136 -99 -196 -81 -16 5 -41 12 -55 14 -44 9 -105 57 -135 105 -25 40 -29 56 -29 126 -1 100 25 154 98 203 55 36 70 41 38 12z"/>
<path d="M1151 762 c-14 -32 -38 -85 -53 -119 -16 -35 -27 -67 -23 -73 4 -6 59 -10 137 -10 l130 0 -47 33 c-56 38 -103 114 -113 181 l-7 44 -24 -56z m62 -144 c5 -16 0 -18 -38 -18 -50 0 -57 13 -28 56 l16 25 22 -23 c11 -13 24 -31 28 -40z"/>
</g>
</svg>